# xmcd
#
# Track frame offsets: 
#        150
#        13358
#        35694
#        55338
#        73336
#        89832
#        109120
#        126342
#        152245
#        184155
#
# Disc length: 2737 seconds
#
# Revision: 0
# Processed by: cddbd v1.5.2PL0 Copyright (c) Steve Scherf et al.
# Submitted via: ExactAudioCopy v1.2
#
DISCID=9a0aaf0a
DTITLE=Mat Walklate and Paolo Fuschi - Kicking up the Dust
DYEAR=2016
DGENRE=Blues
TTITLE0=Ain't No Big Deal on You
TTITLE1=Goin' Down Slow
TTITLE2=As Long as I Have You
TTITLE3=Nothing but Love
TTITLE4=Trouble No More
TTITLE5=Fat Man
TTITLE6=Don't You Know Me
TTITLE7=Black Cat Bone
TTITLE8=Oh Babe (Sick and Tired) - Man in the Street
TTITLE9=Money
EXTD=
EXTT0=
EXTT1=
EXTT2=
EXTT3=
EXTT4=
EXTT5=
EXTT6=
EXTT7=
EXTT8=
EXTT9=
PLAYORDER=
